<?xml version="1.0" encoding="utf-8"?>
<!-- Generator: Philip Schlump, Truck Coin Swap, LLC.  (C) Copyright 2022 - All rights reserved. -->
<svg version="1.1" id="Layer_1" xmlns="http://www.w3.org/2000/svg" xmlns:xlink="http://www.w3.org/1999/xlink" x="0px" y="0px"
	 viewBox="0 0 1080 1080" style="enable-background:new 0 0 1080 1080;" xml:space="preserve">
<style type="text/css">
	.st0{display:none;}
	.st1{display:inline;}
	.st2{clip-path:url(#SVGID_00000106109435589201320250000008119906608358883751_);}
	.st3{clip-path:url(#SVGID_00000165924867431816497160000000913121649381450629_);}
	.st4{display:inline;fill:#FFFFFF;}
</style>
<g id="Background" class="st0">
	<rect id="BLACK_BACKGROUND" class="st1" width="1080" height="1080"/>
</g>
<g id="Full_Color_Logo">
	<g>
		<g>
			<defs>
				<path id="SVGID_1_" d="M870.54,560.22h-9l-13.95-83.52l-0.18-1.08c-2.07-12.18-5.13-19.02-22.41-19.02h-63.3l-83.31-83.31
					l-20.07-20.07v-0.03H196.17l20.01,20.1h433.71l83.4,83.31h-43.38l-51.69-51.69H247.8l20.07,20.07h362.31l31.44,31.62h-362.1
					l20.07,20.1h507.24l14.31,83.52h-34.47c-8.7-16.77-26.22-28.23-46.41-28.23s-37.74,11.46-46.44,28.23H404.04l19.53,20.07h284.55
					c-0.12,1.32-0.18,2.67-0.18,4.02c0,28.89,23.43,52.29,52.32,52.29s52.29-23.4,52.29-52.29c0-1.35-0.06-2.7-0.15-4.02l39.93,0.03
					h18.24L870.54,560.22z M761.16,615.06c-16.92,0-30.63-13.74-30.63-30.66s13.71-30.66,30.63-30.66s30.66,13.74,30.66,30.66
					S778.08,615.06,761.16,615.06z M540,26.31c-283.28,0-512.92,229.64-512.92,512.92S256.72,1052.15,540,1052.15
					s512.92-229.64,512.92-512.92S823.28,26.31,540,26.31z M539.66,1004.83c-257.48,0-466.21-208.73-466.21-466.21
					s208.73-466.2,466.21-466.2s466.21,208.73,466.21,466.21S797.14,1004.83,539.66,1004.83z M444.64,718.4h-26.61v-17.74h72.45
					v17.74h-26.61v69.7h-19.24L444.64,718.4L444.64,718.4z M546.2,789.6c-6.41,0-12.37-1.17-17.86-3.5
					c-5.5-2.33-10.24-5.52-14.24-9.56s-7.12-8.81-9.37-14.3s-3.37-11.37-3.37-17.61v-0.25c0-6.25,1.12-12.1,3.37-17.55
					s5.37-10.25,9.37-14.37s8.78-7.37,14.37-9.74c5.58-2.38,11.74-3.56,18.49-3.56c4.08,0,7.81,0.33,11.18,1s6.43,1.58,9.18,2.75
					s5.29,2.58,7.62,4.25s4.5,3.5,6.5,5.5l-12.24,14.12c-3.42-3.08-6.89-5.5-10.43-7.25s-7.51-2.62-11.93-2.62
					c-3.67,0-7.06,0.71-10.18,2.12c-3.12,1.42-5.81,3.37-8.06,5.87s-4,5.39-5.25,8.68s-1.87,6.81-1.87,10.56v0.25
					c0,3.75,0.63,7.29,1.87,10.62c1.25,3.33,2.98,6.25,5.18,8.74c2.21,2.5,4.87,4.48,8,5.94s6.56,2.19,10.31,2.19
					c5,0,9.22-0.91,12.68-2.75c3.45-1.83,6.89-4.33,10.31-7.49l12.24,12.37c-2.25,2.42-4.58,4.58-6.99,6.5
					c-2.42,1.92-5.06,3.56-7.93,4.93s-6.02,2.42-9.43,3.12C554.27,789.25,550.44,789.6,546.2,789.6z M660.63,762v0.24
					c0,4.35-0.81,8.19-2.37,11.55c-1.56,3.39-3.75,6.21-6.57,8.49c-2.04,1.65-4.35,3.03-6.93,4.11v14.1h-13.62v-11.22
					c-0.81,0.06-1.65,0.09-2.49,0.09c-2.16,0-4.29-0.12-6.42-0.36v11.49h-13.65v-14.76c-6.24-2.28-11.91-5.73-17.04-10.38
					l11.37-13.59c3.99,3.24,8.1,5.82,12.3,7.74s8.82,2.88,13.8,2.88c3.99,0,7.11-0.75,9.3-2.19c2.22-1.47,3.33-3.48,3.33-6.06v-0.27
					c0-1.23-0.24-2.34-0.69-3.3c-0.48-0.96-1.35-1.86-2.64-2.7c-1.29-0.81-3.09-1.65-5.37-2.49c-2.31-0.84-5.31-1.71-8.97-2.61
					c-4.41-1.08-8.43-2.31-12.03-3.63c-3.57-1.32-6.63-2.97-9.15-4.92c-2.49-1.98-4.44-4.41-5.82-7.32
					c-1.38-2.91-2.07-6.54-2.07-10.86v-0.27c0-3.99,0.75-7.59,2.25-10.8c1.47-3.21,3.57-5.97,6.27-8.31
					c1.53-1.32,3.27-2.49,5.16-3.45v-14.91h13.65v11.25c1.05-0.09,2.07-0.12,3.15-0.12c1.98,0,3.9,0.09,5.76,0.27v-11.4h13.62v14.61
					c4.74,1.89,9.09,4.44,13.11,7.62l-9.99,14.49c-3.93-2.64-7.74-4.77-11.49-6.3c-3.75-1.53-7.5-2.31-11.25-2.31
					s-6.54,0.72-8.43,2.19c-1.86,1.44-2.82,3.27-2.82,5.43v0.24c0,1.44,0.27,2.64,0.84,3.69c0.54,1.05,1.5,1.98,2.94,2.82
					c1.41,0.84,3.36,1.62,5.82,2.37s5.55,1.62,9.33,2.61c4.41,1.17,8.37,2.49,11.82,3.96c3.48,1.44,6.39,3.18,8.79,5.22
					c2.37,2.07,4.17,4.44,5.37,7.2C660,754.86,660.63,758.16,660.63,762z M802.35,528.63H372.72l-20.1-20.07h449.73V528.63z"/>
			</defs>
			<clipPath id="SVGID_00000066504388722042916960000011140167239170634371_">
				<use xlink:href="#SVGID_1_"  style="overflow:visible;"/>
			</clipPath>
			<g style="clip-path:url(#SVGID_00000066504388722042916960000011140167239170634371_);">
				<g>
					<g>
						<defs>
							
								<rect id="SVGID_00000005979344448653666220000017170812472563189687_" x="-33.94" y="14.31" width="1747.72" height="1048.63"/>
						</defs>
						<clipPath id="SVGID_00000165233770465748243800000005743288505814870146_">
							<use xlink:href="#SVGID_00000005979344448653666220000017170812472563189687_"  style="overflow:visible;"/>
						</clipPath>
						<g id="pjs001">
							<rect width="1080" height="1080" fill="url(#gradient-fill)"/>
							<defs>
								<linearGradient id="gradient-fill" x1="0" y1="0" x2="1080" y2="0" gradientUnits="userSpaceOnUse">
									<stop offset="0" stop-color="#f5e400" />
									<stop offset="0.14285714285714285" stop-color="#ead119" />
									<stop offset="0.2857142857142857" stop-color="#debf25" />
									<stop offset="0.42857142857142855" stop-color="#d0ad2d" />
									<stop offset="0.5714285714285714" stop-color="#c29c33" />
									<stop offset="0.7142857142857142" stop-color="#b28c37" />
									<stop offset="0.8571428571428571" stop-color="#a17d3a" />
									<stop offset="1" stop-color="#8f6e3c" />
								</linearGradient>
							</defs>
						</g>
					</g>
				</g>
			</g>
		</g>
	</g>
</g>
<g id="Black_Logo" class="st0">
	<path class="st1" d="M870.19,560.83h-9l-13.95-83.52l-0.18-1.08c-2.07-12.18-5.13-19.02-22.41-19.02h-63.3l-83.31-83.31
		l-20.07-20.07v-0.03H195.82l20.01,20.1h433.71l83.4,83.31h-43.38l-51.69-51.69H247.45l20.07,20.07h362.31l31.44,31.62h-362.1
		l20.07,20.1h507.24l14.31,83.52h-34.47c-8.7-16.77-26.22-28.23-46.41-28.23s-37.74,11.46-46.44,28.23H403.69l19.53,20.07h284.55
		c-0.12,1.32-0.18,2.67-0.18,4.02c0,28.89,23.43,52.29,52.32,52.29s52.29-23.4,52.29-52.29c0-1.35-0.06-2.7-0.15-4.02l39.93,0.03
		h18.24L870.19,560.83z M760.81,615.67c-16.92,0-30.63-13.74-30.63-30.66s13.71-30.66,30.63-30.66s30.66,13.74,30.66,30.66
		S777.73,615.67,760.81,615.67z M539.65,26.92c-283.28,0-512.92,229.64-512.92,512.92s229.64,512.92,512.92,512.92
		s512.92-229.64,512.92-512.92S822.93,26.92,539.65,26.92z M539.31,1005.45c-257.48,0-466.21-208.73-466.21-466.21
		S281.83,73.03,539.31,73.03s466.21,208.73,466.21,466.21S796.79,1005.45,539.31,1005.45z M444.29,719.01h-26.61v-17.74h72.45v17.74
		h-26.61v69.7h-19.24L444.29,719.01L444.29,719.01z M545.85,790.22c-6.41,0-12.37-1.17-17.86-3.5c-5.5-2.33-10.24-5.52-14.24-9.56
		s-7.12-8.81-9.37-14.3S501,751.49,501,745.24V745c0-6.25,1.12-12.1,3.37-17.55s5.37-10.25,9.37-14.37s8.78-7.37,14.37-9.74
		c5.58-2.38,11.74-3.56,18.49-3.56c4.08,0,7.81,0.33,11.18,1s6.43,1.58,9.18,2.75s5.29,2.58,7.62,4.25s4.5,3.5,6.5,5.5l-12.24,14.12
		c-3.42-3.08-6.89-5.5-10.43-7.25s-7.51-2.62-11.93-2.62c-3.67,0-7.06,0.71-10.18,2.12c-3.12,1.42-5.81,3.37-8.06,5.87
		s-4,5.39-5.25,8.68s-1.87,6.81-1.87,10.56V745c0,3.75,0.63,7.29,1.87,10.62c1.25,3.33,2.98,6.25,5.18,8.74
		c2.21,2.5,4.87,4.48,8,5.94s6.56,2.19,10.31,2.19c5,0,9.22-0.91,12.68-2.75c3.45-1.83,6.89-4.33,10.31-7.49l12.24,12.37
		c-2.25,2.42-4.58,4.58-6.99,6.5c-2.42,1.92-5.06,3.56-7.93,4.93s-6.02,2.42-9.43,3.12C553.92,789.86,550.1,790.22,545.85,790.22z
		 M660.28,762.61v0.24c0,4.35-0.81,8.19-2.37,11.55c-1.56,3.39-3.75,6.21-6.57,8.49c-2.04,1.65-4.35,3.03-6.93,4.11v14.1h-13.62
		v-11.22c-0.81,0.06-1.65,0.09-2.49,0.09c-2.16,0-4.29-0.12-6.42-0.36v11.49h-13.65v-14.76c-6.24-2.28-11.91-5.73-17.04-10.38
		l11.37-13.59c3.99,3.24,8.1,5.82,12.3,7.74s8.82,2.88,13.8,2.88c3.99,0,7.11-0.75,9.3-2.19c2.22-1.47,3.33-3.48,3.33-6.06v-0.27
		c0-1.23-0.24-2.34-0.69-3.3c-0.48-0.96-1.35-1.86-2.64-2.7c-1.29-0.81-3.09-1.65-5.37-2.49c-2.31-0.84-5.31-1.71-8.97-2.61
		c-4.41-1.08-8.43-2.31-12.03-3.63c-3.57-1.32-6.63-2.97-9.15-4.92c-2.49-1.98-4.44-4.41-5.82-7.32c-1.38-2.91-2.07-6.54-2.07-10.86
		v-0.27c0-3.99,0.75-7.59,2.25-10.8c1.47-3.21,3.57-5.97,6.27-8.31c1.53-1.32,3.27-2.49,5.16-3.45V688.9h13.65v11.25
		c1.05-0.09,2.07-0.12,3.15-0.12c1.98,0,3.9,0.09,5.76,0.27v-11.4h13.62v14.61c4.74,1.89,9.09,4.44,13.11,7.62l-9.99,14.49
		c-3.93-2.64-7.74-4.77-11.49-6.3c-3.75-1.53-7.5-2.31-11.25-2.31s-6.54,0.72-8.43,2.19c-1.86,1.44-2.82,3.27-2.82,5.43v0.24
		c0,1.44,0.27,2.64,0.84,3.69c0.54,1.05,1.5,1.98,2.94,2.82c1.41,0.84,3.36,1.62,5.82,2.37s5.55,1.62,9.33,2.61
		c4.41,1.17,8.37,2.49,11.82,3.96c3.48,1.44,6.39,3.18,8.79,5.22c2.37,2.07,4.17,4.44,5.37,7.2
		C659.65,755.47,660.28,758.77,660.28,762.61z M802,529.24H372.37l-20.1-20.07H802V529.24z"/>
</g>
<g id="White_Logo" class="st0">
	<path class="st4" d="M870.19,560.83h-9l-13.95-83.52l-0.18-1.08c-2.07-12.18-5.13-19.02-22.41-19.02h-63.3l-83.31-83.31
		l-20.07-20.07v-0.03H195.82l20.01,20.1h433.71l83.4,83.31h-43.38l-51.69-51.69H247.45l20.07,20.07h362.31l31.44,31.62h-362.1
		l20.07,20.1h507.24l14.31,83.52h-34.47c-8.7-16.77-26.22-28.23-46.41-28.23s-37.74,11.46-46.44,28.23H403.69l19.53,20.07h284.55
		c-0.12,1.32-0.18,2.67-0.18,4.02c0,28.89,23.43,52.29,52.32,52.29s52.29-23.4,52.29-52.29c0-1.35-0.06-2.7-0.15-4.02l39.93,0.03
		h18.24L870.19,560.83z M760.81,615.67c-16.92,0-30.63-13.74-30.63-30.66s13.71-30.66,30.63-30.66s30.66,13.74,30.66,30.66
		S777.73,615.67,760.81,615.67z M539.65,26.92c-283.28,0-512.92,229.64-512.92,512.92s229.64,512.92,512.92,512.92
		s512.92-229.64,512.92-512.92S822.93,26.92,539.65,26.92z M539.31,1005.45c-257.48,0-466.21-208.73-466.21-466.21
		S281.83,73.03,539.31,73.03s466.21,208.73,466.21,466.21S796.79,1005.45,539.31,1005.45z M444.29,719.01h-26.61v-17.74h72.45v17.74
		h-26.61v69.7h-19.24L444.29,719.01L444.29,719.01z M545.85,790.22c-6.41,0-12.37-1.17-17.86-3.5c-5.5-2.33-10.24-5.52-14.24-9.56
		s-7.12-8.81-9.37-14.3S501,751.49,501,745.24V745c0-6.25,1.12-12.1,3.37-17.55s5.37-10.25,9.37-14.37s8.78-7.37,14.37-9.74
		c5.58-2.38,11.74-3.56,18.49-3.56c4.08,0,7.81,0.33,11.18,1s6.43,1.58,9.18,2.75s5.29,2.58,7.62,4.25s4.5,3.5,6.5,5.5l-12.24,14.12
		c-3.42-3.08-6.89-5.5-10.43-7.25s-7.51-2.62-11.93-2.62c-3.67,0-7.06,0.71-10.18,2.12c-3.12,1.42-5.81,3.37-8.06,5.87
		s-4,5.39-5.25,8.68s-1.87,6.81-1.87,10.56V745c0,3.75,0.63,7.29,1.87,10.62c1.25,3.33,2.98,6.25,5.18,8.74
		c2.21,2.5,4.87,4.48,8,5.94s6.56,2.19,10.31,2.19c5,0,9.22-0.91,12.68-2.75c3.45-1.83,6.89-4.33,10.31-7.49l12.24,12.37
		c-2.25,2.42-4.58,4.58-6.99,6.5c-2.42,1.92-5.06,3.56-7.93,4.93s-6.02,2.42-9.43,3.12C553.92,789.86,550.1,790.22,545.85,790.22z
		 M660.28,762.61v0.24c0,4.35-0.81,8.19-2.37,11.55c-1.56,3.39-3.75,6.21-6.57,8.49c-2.04,1.65-4.35,3.03-6.93,4.11v14.1h-13.62
		v-11.22c-0.81,0.06-1.65,0.09-2.49,0.09c-2.16,0-4.29-0.12-6.42-0.36v11.49h-13.65v-14.76c-6.24-2.28-11.91-5.73-17.04-10.38
		l11.37-13.59c3.99,3.24,8.1,5.82,12.3,7.74s8.82,2.88,13.8,2.88c3.99,0,7.11-0.75,9.3-2.19c2.22-1.47,3.33-3.48,3.33-6.06v-0.27
		c0-1.23-0.24-2.34-0.69-3.3c-0.48-0.96-1.35-1.86-2.64-2.7c-1.29-0.81-3.09-1.65-5.37-2.49c-2.31-0.84-5.31-1.71-8.97-2.61
		c-4.41-1.08-8.43-2.31-12.03-3.63c-3.57-1.32-6.63-2.97-9.15-4.92c-2.49-1.98-4.44-4.41-5.82-7.32c-1.38-2.91-2.07-6.54-2.07-10.86
		v-0.27c0-3.99,0.75-7.59,2.25-10.8c1.47-3.21,3.57-5.97,6.27-8.31c1.53-1.32,3.27-2.49,5.16-3.45V688.9h13.65v11.25
		c1.05-0.09,2.07-0.12,3.15-0.12c1.98,0,3.9,0.09,5.76,0.27v-11.4h13.62v14.61c4.74,1.89,9.09,4.44,13.11,7.62l-9.99,14.49
		c-3.93-2.64-7.74-4.77-11.49-6.3c-3.75-1.53-7.5-2.31-11.25-2.31s-6.54,0.72-8.43,2.19c-1.86,1.44-2.82,3.27-2.82,5.43v0.24
		c0,1.44,0.27,2.64,0.84,3.69c0.54,1.05,1.5,1.98,2.94,2.82c1.41,0.84,3.36,1.62,5.82,2.37s5.55,1.62,9.33,2.61
		c4.41,1.17,8.37,2.49,11.82,3.96c3.48,1.44,6.39,3.18,8.79,5.22c2.37,2.07,4.17,4.44,5.37,7.2
		C659.65,755.47,660.28,758.77,660.28,762.61z M802,529.24H372.37l-20.1-20.07H802V529.24z"/>
</g>
</svg>
